<mxfile host="app.diagrams.net" modified="2022-10-11T05:54:06.835Z" agent="5.0 (Windows NT 10.0; Win64; x64) AppleWebKit/537.36 (KHTML, like Gecko) Chrome/106.0.0.0 Safari/537.36" etag="PLcXj0M_YsTNRedtkmSb" version="20.4.0" type="github">
  <diagram id="6a731a19-8d31-9384-78a2-239565b7b9f0" name="Page-1">
    <mxGraphModel dx="1422" dy="706" grid="1" gridSize="10" guides="1" tooltips="1" connect="1" arrows="1" fold="1" page="1" pageScale="1" pageWidth="1169" pageHeight="827" background="none" math="0" shadow="0">
      <root>
        <mxCell id="0" />
        <mxCell id="1" parent="0" />
        <mxCell id="sX7bemxgdabTvUzmlhU1-83" value="" style="group" parent="1" vertex="1" connectable="0">
          <mxGeometry x="670" y="40" width="290" height="730" as="geometry" />
        </mxCell>
        <mxCell id="2" value="&lt;font style=&quot;font-size: 16px;&quot;&gt;开始&lt;/font&gt;" style="shape=mxgraph.flowchart.terminator;strokeWidth=2;gradientDirection=north;fontStyle=0;html=1;fillColor=#dae8fc;strokeColor=#6c8ebf;" parent="sX7bemxgdabTvUzmlhU1-83" vertex="1">
          <mxGeometry x="137.6271186440678" width="108.13559322033899" height="45.426260112009956" as="geometry" />
        </mxCell>
        <mxCell id="sX7bemxgdabTvUzmlhU1-55" value="摄像头标定" style="rounded=0;whiteSpace=wrap;html=1;fontSize=16;fillColor=#dae8fc;strokeColor=#6c8ebf;" parent="sX7bemxgdabTvUzmlhU1-83" vertex="1">
          <mxGeometry x="93.38983050847457" y="63.59676415681394" width="196.61016949152543" height="45.426260112009956" as="geometry" />
        </mxCell>
        <mxCell id="sX7bemxgdabTvUzmlhU1-82" style="edgeStyle=orthogonalEdgeStyle;orthogonalLoop=1;jettySize=auto;html=1;exitX=0.5;exitY=1;exitDx=0;exitDy=0;exitPerimeter=0;entryX=0.5;entryY=0;entryDx=0;entryDy=0;strokeWidth=1;fontSize=16;fillColor=#dae8fc;strokeColor=#6c8ebf;" parent="sX7bemxgdabTvUzmlhU1-83" source="2" target="sX7bemxgdabTvUzmlhU1-55" edge="1">
          <mxGeometry relative="1" as="geometry" />
        </mxCell>
        <mxCell id="sX7bemxgdabTvUzmlhU1-56" value="计算坐标变换矩阵" style="rounded=0;whiteSpace=wrap;html=1;fontSize=16;fillColor=#dae8fc;strokeColor=#6c8ebf;" parent="sX7bemxgdabTvUzmlhU1-83" vertex="1">
          <mxGeometry x="93.38983050847457" y="127.19352831362788" width="196.61016949152543" height="45.426260112009956" as="geometry" />
        </mxCell>
        <mxCell id="sX7bemxgdabTvUzmlhU1-57" value="绘制标尺线" style="rounded=0;whiteSpace=wrap;html=1;fontSize=16;fillColor=#dae8fc;strokeColor=#6c8ebf;" parent="sX7bemxgdabTvUzmlhU1-83" vertex="1">
          <mxGeometry x="93.38983050847457" y="190.7902924704418" width="196.61016949152543" height="54.51151213441195" as="geometry" />
        </mxCell>
        <mxCell id="sX7bemxgdabTvUzmlhU1-76" style="edgeStyle=orthogonalEdgeStyle;orthogonalLoop=1;jettySize=auto;html=1;exitX=0.5;exitY=1;exitDx=0;exitDy=0;entryX=0.5;entryY=0;entryDx=0;entryDy=0;strokeWidth=1;fontSize=16;fillColor=#dae8fc;strokeColor=#6c8ebf;" parent="sX7bemxgdabTvUzmlhU1-83" source="sX7bemxgdabTvUzmlhU1-56" target="sX7bemxgdabTvUzmlhU1-57" edge="1">
          <mxGeometry relative="1" as="geometry" />
        </mxCell>
        <mxCell id="sX7bemxgdabTvUzmlhU1-58" value="实时获取图像并转换为灰度图" style="rounded=0;whiteSpace=wrap;html=1;fontSize=16;fillColor=#dae8fc;strokeColor=#6c8ebf;" parent="sX7bemxgdabTvUzmlhU1-83" vertex="1">
          <mxGeometry x="93.38983050847457" y="436.0920970752956" width="196.61016949152543" height="54.51151213441195" as="geometry" />
        </mxCell>
        <mxCell id="sX7bemxgdabTvUzmlhU1-59" value="将灰度图转换为二值图" style="rounded=0;whiteSpace=wrap;html=1;fontSize=16;fillColor=#dae8fc;strokeColor=#6c8ebf;" parent="sX7bemxgdabTvUzmlhU1-83" vertex="1">
          <mxGeometry x="93.38983050847457" y="517.8593652769135" width="196.61016949152543" height="54.51151213441195" as="geometry" />
        </mxCell>
        <mxCell id="sX7bemxgdabTvUzmlhU1-79" style="edgeStyle=orthogonalEdgeStyle;orthogonalLoop=1;jettySize=auto;html=1;exitX=0.5;exitY=1;exitDx=0;exitDy=0;entryX=0.5;entryY=0;entryDx=0;entryDy=0;strokeWidth=1;fontSize=16;fillColor=#dae8fc;strokeColor=#6c8ebf;" parent="sX7bemxgdabTvUzmlhU1-83" source="sX7bemxgdabTvUzmlhU1-58" target="sX7bemxgdabTvUzmlhU1-59" edge="1">
          <mxGeometry relative="1" as="geometry" />
        </mxCell>
        <mxCell id="sX7bemxgdabTvUzmlhU1-60" value="获取二值图上值为1的聚集点，选取首点计算车道线距离" style="rounded=0;whiteSpace=wrap;html=1;fontSize=16;fillColor=#dae8fc;strokeColor=#6c8ebf;" parent="sX7bemxgdabTvUzmlhU1-83" vertex="1">
          <mxGeometry x="93.38983050847457" y="599.6266334785314" width="196.61016949152543" height="54.51151213441195" as="geometry" />
        </mxCell>
        <mxCell id="sX7bemxgdabTvUzmlhU1-80" style="edgeStyle=orthogonalEdgeStyle;orthogonalLoop=1;jettySize=auto;html=1;exitX=0.5;exitY=1;exitDx=0;exitDy=0;entryX=0.5;entryY=0;entryDx=0;entryDy=0;strokeWidth=1;fontSize=16;fillColor=#dae8fc;strokeColor=#6c8ebf;" parent="sX7bemxgdabTvUzmlhU1-83" source="sX7bemxgdabTvUzmlhU1-59" target="sX7bemxgdabTvUzmlhU1-60" edge="1">
          <mxGeometry relative="1" as="geometry" />
        </mxCell>
        <mxCell id="sX7bemxgdabTvUzmlhU1-61" value="&lt;font style=&quot;font-size: 16px;&quot;&gt;结束&lt;/font&gt;" style="shape=mxgraph.flowchart.terminator;strokeWidth=2;gradientDirection=north;fontStyle=0;html=1;fillColor=#dae8fc;strokeColor=#6c8ebf;" parent="sX7bemxgdabTvUzmlhU1-83" vertex="1">
          <mxGeometry x="125.33898305084746" y="681.3939016801494" width="120.42372881355932" height="48.60609831985066" as="geometry" />
        </mxCell>
        <mxCell id="sX7bemxgdabTvUzmlhU1-81" style="edgeStyle=orthogonalEdgeStyle;orthogonalLoop=1;jettySize=auto;html=1;exitX=0.5;exitY=1;exitDx=0;exitDy=0;entryX=0.571;entryY=-0.037;entryDx=0;entryDy=0;entryPerimeter=0;strokeWidth=1;fontSize=16;fillColor=#dae8fc;strokeColor=#6c8ebf;" parent="sX7bemxgdabTvUzmlhU1-83" source="sX7bemxgdabTvUzmlhU1-60" target="sX7bemxgdabTvUzmlhU1-61" edge="1">
          <mxGeometry relative="1" as="geometry" />
        </mxCell>
        <mxCell id="sX7bemxgdabTvUzmlhU1-70" style="edgeStyle=orthogonalEdgeStyle;orthogonalLoop=1;jettySize=auto;html=1;fontSize=16;fontStyle=1;strokeWidth=1;startArrow=none;fillColor=#dae8fc;strokeColor=#6c8ebf;" parent="sX7bemxgdabTvUzmlhU1-83" source="sX7bemxgdabTvUzmlhU1-71" edge="1">
          <mxGeometry relative="1" as="geometry">
            <mxPoint x="88.47457627118645" y="81.76726820161792" as="targetPoint" />
            <Array as="points">
              <mxPoint x="19.661016949152543" y="81.76726820161792" />
            </Array>
          </mxGeometry>
        </mxCell>
        <mxCell id="sX7bemxgdabTvUzmlhU1-73" style="edgeStyle=orthogonalEdgeStyle;orthogonalLoop=1;jettySize=auto;html=1;exitX=0.5;exitY=1;exitDx=0;exitDy=0;entryX=0.5;entryY=0;entryDx=0;entryDy=0;strokeWidth=1;fontSize=16;startArrow=none;fillColor=#dae8fc;strokeColor=#6c8ebf;" parent="sX7bemxgdabTvUzmlhU1-83" source="sX7bemxgdabTvUzmlhU1-74" target="sX7bemxgdabTvUzmlhU1-58" edge="1">
          <mxGeometry relative="1" as="geometry" />
        </mxCell>
        <mxCell id="sX7bemxgdabTvUzmlhU1-62" value="标尺线输出成功？" style="rhombus;whiteSpace=wrap;html=1;fontSize=16;fillColor=#dae8fc;strokeColor=#6c8ebf;" parent="sX7bemxgdabTvUzmlhU1-83" vertex="1">
          <mxGeometry x="105.67796610169492" y="272.55756067205976" width="172.03389830508476" height="99.93777224642191" as="geometry" />
        </mxCell>
        <mxCell id="sX7bemxgdabTvUzmlhU1-78" style="edgeStyle=orthogonalEdgeStyle;orthogonalLoop=1;jettySize=auto;html=1;exitX=0.5;exitY=1;exitDx=0;exitDy=0;entryX=0.5;entryY=0;entryDx=0;entryDy=0;strokeWidth=1;fontSize=16;fillColor=#dae8fc;strokeColor=#6c8ebf;" parent="sX7bemxgdabTvUzmlhU1-83" source="sX7bemxgdabTvUzmlhU1-57" target="sX7bemxgdabTvUzmlhU1-62" edge="1">
          <mxGeometry relative="1" as="geometry" />
        </mxCell>
        <mxCell id="sX7bemxgdabTvUzmlhU1-66" value="" style="endArrow=classic;html=1;fontSize=16;curved=1;exitX=0.5;exitY=1;exitDx=0;exitDy=0;fillColor=#dae8fc;strokeColor=#6c8ebf;" parent="sX7bemxgdabTvUzmlhU1-83" source="sX7bemxgdabTvUzmlhU1-55" target="sX7bemxgdabTvUzmlhU1-56" edge="1">
          <mxGeometry width="50" height="50" relative="1" as="geometry">
            <mxPoint x="-88.47457627118645" y="118.10827629122589" as="sourcePoint" />
            <mxPoint x="-98.30508474576271" y="199.87554449284383" as="targetPoint" />
          </mxGeometry>
        </mxCell>
        <mxCell id="sX7bemxgdabTvUzmlhU1-71" value="否" style="text;html=1;resizable=0;autosize=1;align=center;verticalAlign=middle;points=[];fillColor=#dae8fc;strokeColor=#6c8ebf;rounded=0;fontSize=16;" parent="sX7bemxgdabTvUzmlhU1-83" vertex="1">
          <mxGeometry y="163.53453640323585" width="40" height="30" as="geometry" />
        </mxCell>
        <mxCell id="sX7bemxgdabTvUzmlhU1-72" value="" style="edgeStyle=orthogonalEdgeStyle;orthogonalLoop=1;jettySize=auto;html=1;fontSize=16;fontStyle=1;strokeWidth=1;endArrow=none;fillColor=#dae8fc;strokeColor=#6c8ebf;" parent="sX7bemxgdabTvUzmlhU1-83" source="sX7bemxgdabTvUzmlhU1-62" target="sX7bemxgdabTvUzmlhU1-71" edge="1">
          <mxGeometry relative="1" as="geometry">
            <mxPoint x="88.47457627118645" y="81.76726820161792" as="targetPoint" />
            <mxPoint x="103.22033898305085" y="322.5264467952707" as="sourcePoint" />
            <Array as="points">
              <mxPoint x="19.661016949152543" y="322.5264467952707" />
            </Array>
          </mxGeometry>
        </mxCell>
        <mxCell id="sX7bemxgdabTvUzmlhU1-74" value="是" style="text;html=1;resizable=0;autosize=1;align=center;verticalAlign=middle;points=[];fillColor=#dae8fc;strokeColor=#6c8ebf;rounded=0;fontSize=16;" parent="sX7bemxgdabTvUzmlhU1-83" vertex="1">
          <mxGeometry x="172.03389830508476" y="381.5805849408836" width="40" height="30" as="geometry" />
        </mxCell>
        <mxCell id="sX7bemxgdabTvUzmlhU1-75" value="" style="edgeStyle=orthogonalEdgeStyle;orthogonalLoop=1;jettySize=auto;html=1;exitX=0.5;exitY=1;exitDx=0;exitDy=0;entryX=0.5;entryY=0;entryDx=0;entryDy=0;strokeWidth=1;fontSize=16;endArrow=none;fillColor=#dae8fc;strokeColor=#6c8ebf;" parent="sX7bemxgdabTvUzmlhU1-83" source="sX7bemxgdabTvUzmlhU1-62" target="sX7bemxgdabTvUzmlhU1-74" edge="1">
          <mxGeometry relative="1" as="geometry">
            <mxPoint x="191.6949152542373" y="381.5805849408836" as="sourcePoint" />
            <mxPoint x="191.6949152542373" y="463.34785314250155" as="targetPoint" />
          </mxGeometry>
        </mxCell>
      </root>
    </mxGraphModel>
  </diagram>
</mxfile>
